HIERARCHY
ROOT Hips
{
	OFFSET 0.00000 0.00000 0.00000
	CHANNELS 6 Xposition Yposition Zposition Zrotation Yrotation Xrotation 
	JOINT LHipJoint
	{
		OFFSET 0 0 0
		CHANNELS 3 Zrotation Yrotation Xrotation
		JOINT LeftHip
		{
			OFFSET 1.44960 -1.75505 0.85172
			CHANNELS 3 Zrotation Yrotation Xrotation
			JOINT LeftKnee
			{
				OFFSET 2.40573 -6.60971 0.00000
				CHANNELS 3 Zrotation Yrotation Xrotation
				JOINT LeftAnkle
				{
					OFFSET 2.58773 -7.10974 0.00000
					CHANNELS 3 Zrotation Yrotation Xrotation
					JOINT LeftToe
					{
						OFFSET 0.18252 -0.50147 1.77316
						CHANNELS 3 Zrotation Yrotation Xrotation
						End Site
						{
							OFFSET 0.00000 -0.00000 0.92990
						}
					}
				}
			}
		}
	}
	JOINT RHipJoint
	{
		OFFSET 0 0 0
		CHANNELS 3 Zrotation Yrotation Xrotation
		JOINT RightHip
		{
			OFFSET -1.40744 -1.75505 0.85172
			CHANNELS 3 Zrotation Yrotation Xrotation
			JOINT RightKnee
			{
				OFFSET -2.43714 -6.69600 0.00000
				CHANNELS 3 Zrotation Yrotation Xrotation
				JOINT RightAnkle
				{
					OFFSET -2.51650 -6.91404 0.00000
					CHANNELS 3 Zrotation Yrotation Xrotation
					JOINT RightToe
					{
						OFFSET -0.25383 -0.69740 1.96384
						CHANNELS 3 Zrotation Yrotation Xrotation
						End Site
						{
							OFFSET -0.00000 -0.00000 1.04244
						}
					}
				}
			}
		}
	}
	JOINT lowerback
	{
		OFFSET 0 0 0
		CHANNELS 3 Zrotation Yrotation Xrotation
		JOINT Chest
		{
			OFFSET 0.00579 2.14458 -0.24367
			CHANNELS 3 Zrotation Yrotation Xrotation
			JOINT Chest2
			{
				OFFSET 0.05899 2.16316 -0.04515
				CHANNELS 3 Zrotation Yrotation Xrotation
				JOINT lowerneck
				{
					OFFSET 0 0 0
					CHANNELS 3 Zrotation Yrotation Xrotation
					JOINT Neck
					{
						OFFSET -0.01650 1.59577 0.24841
						CHANNELS 3 Zrotation Yrotation Xrotation
						JOINT Head
						{
							OFFSET -0.01016 1.63072 -0.17782
							CHANNELS 3 Zrotation Yrotation Xrotation
							End Site
							{
								OFFSET -0.00250 1.64111 -0.08717
							}
						}
					}
				}
				JOINT LeftCollar
				{
					OFFSET 0 0 0
					CHANNELS 3 Zrotation Yrotation Xrotation
					JOINT LeftShoulder
					{
						OFFSET 3.17745 0.95174 -0.45729
CHANNELS 3 Zrotation Xrotation Yrotation
						JOINT LeftElbow
						{
OFFSET 0 -4.934850 0.000000
CHANNELS 3 Zrotation Xrotation Yrotation
							JOINT LeftWrist
							{
OFFSET 0 -3.417190 -0.000000
CHANNELS 3 Zrotation Xrotation Yrotation
								JOINT lhand
								{
									OFFSET 0 0 0
CHANNELS 3 Zrotation Xrotation Yrotation
									JOINT LFingers
									{
OFFSET 0 -0.624100 -0.000000
CHANNELS 3 Zrotation Xrotation Yrotation
										End Site
										{
OFFSET 0 -0.503170 -0.000000
										}
									}
								}
								JOINT LThumb
								{
OFFSET 0 0.000000 0.000000
CHANNELS 3 Zrotation Xrotation Yrotation
									End Site
									{
OFFSET 0 -0.510850 0.510850
									}
								}
							}
						}
					}
				}
				JOINT RightCollar
				{
					OFFSET 0 0 0
					CHANNELS 3 Zrotation Yrotation Xrotation
					JOINT RightShoulder
					{
						OFFSET -2.87924 1.13038 -0.75204
CHANNELS 3 Zrotation Xrotation Yrotation
						JOINT RightElbow
						{
OFFSET 0 -5.220340 0.000000
CHANNELS 3 Zrotation Xrotation Yrotation
							JOINT RightWrist
							{
OFFSET 0 -3.418090 -0.000000
CHANNELS 3 Zrotation Xrotation Yrotation
								JOINT rhand
								{
									OFFSET 0 0 0
CHANNELS 3 Zrotation Xrotation Yrotation
									JOINT RFingers
									{
OFFSET 0 -0.775340 -0.000000
CHANNELS 3 Zrotation Xrotation Yrotation
										End Site
										{
OFFSET 0 -0.625100 -0.000000
										}
									}
								}
								JOINT RThumb
								{
OFFSET 0 0.000000 0.000000
CHANNELS 3 Zrotation Xrotation Yrotation
									End Site
									{
OFFSET 0 -0.634640 0.634640
									}
								}
							}
						}
					}
				}
			}
		}
	}
}
MOTION
Frames: 9
Frame Time: 0.008333333333333333
1.309400 17.565315 -24.805063 1.245869 -0.908168 4.568048 0.000000 0.000000 0.000000 -25.346554 -5.916929 -17.613139 1.338313 7.324890 20.681575 0.336617 -5.456380 -10.434005 0.031841 1.145270 3.148671 0.000000 0.000000 0.000000 17.164237 -4.913423 -2.883270 -7.779511 -15.952727 51.761388 0.511663 -13.064342 -1.016770 -2.962234 -10.633499 31.053790 -5.919658 1.606589 1.137905 3.629526 2.094340 -1.437920 7.050083 1.192118 -2.484228 -6.307951 -1.626780 -17.120539 -7.380336 1.452213 22.842159 -1.365032 -0.760290 10.233746 0.000000 0.000000 0.000000 -2.103881 8.465114 -16.313397 17.563456 -27.593963 4.345437 0.237743 8.429580 -40.995307 0.000000 0.000000 0.000000 -7.125000 0.000000 0.000000 -46.234346 65.145336 24.876199 0.000000 0.000000 0.000000 -17.240392 -7.391347 2.451210 -13.429592 -21.913358 -2.611477 -20.857373 -19.584245 -29.008604 0.000000 0.000000 0.000000 7.125000 0.000000 0.000000 5.741862 -0.570190 5.827082
1.325222 17.561720 -24.679555 1.837667 -0.539108 4.366601 0.000000 0.000000 0.000000 -26.197376 -5.917645 -16.775666 1.326942 7.294913 20.592177 0.359949 -5.489543 -10.768981 0.036944 1.240849 3.411776 0.000000 0.000000 0.000000 16.440494 -5.057151 -3.972219 -8.201092 -16.263824 53.281667 0.501077 -12.611135 -2.440826 -2.943132 -10.602482 30.950532 -6.446600 1.509114 1.332178 3.430695 1.938047 -1.299867 7.145924 1.114220 -2.435885 -6.119625 -1.662810 -17.387914 -7.501978 1.399171 22.764455 -1.448426 -0.784820 10.256563 0.000000 0.000000 0.000000 -1.822538 8.044613 -16.908575 17.774155 -27.867011 4.443191 0.417527 8.190408 -41.775338 0.000000 0.000000 0.000000 -7.125000 0.000000 0.000000 -47.334379 65.727086 26.208197 0.000000 0.000000 0.000000 -16.956723 -6.888041 2.256778 -13.366288 -21.821565 -2.587838 -20.448158 -19.257417 -28.704314 0.000000 0.000000 0.000000 7.125000 0.000000 0.000000 5.943599 -0.178534 5.994633
1.336694 17.565052 -24.557039 1.760235 0.025725 4.229027 0.000000 0.000000 0.000000 -26.245178 -6.207810 -15.997308 1.326202 7.293027 20.586499 0.380090 -5.439628 -11.046448 0.039638 1.284558 3.532140 0.000000 0.000000 0.000000 16.607513 -5.181504 -5.138918 -8.559992 -16.515436 54.554585 0.434727 -11.608046 -4.134073 -2.548421 -9.917256 28.716357 -6.351269 1.294831 1.380134 3.514032 1.653169 -1.156770 7.192518 0.959228 -2.264545 -6.644117 -1.695033 -17.209848 -6.917511 1.301096 22.375846 -1.158823 -0.784660 10.073890 0.000000 0.000000 0.000000 -1.684011 7.711798 -17.483570 18.041626 -28.210189 4.569051 0.750790 7.995623 -41.718669 0.000000 0.000000 0.000000 -7.125000 0.000000 0.000000 -46.907416 65.790068 25.981570 0.000000 0.000000 0.000000 -16.730538 -6.386752 2.075723 -13.341556 -21.785629 -2.578702 -20.760599 -19.026190 -28.180914 0.000000 0.000000 0.000000 7.125000 0.000000 0.000000 5.697501 0.298326 5.696269
1.342084 17.561026 -24.448171 1.828721 0.323835 4.126155 0.000000 0.000000 0.000000 -26.415364 -6.417299 -15.552052 1.343904 7.339535 20.725262 0.375529 -5.547211 -10.995889 0.071810 1.724044 4.743760 0.000000 0.000000 0.000000 16.624142 -4.894252 -6.328234 -8.870649 -16.723534 55.641264 0.393467 -11.071675 -5.015414 -2.295007 -9.454737 27.228669 -6.265988 1.117329 1.697302 3.356540 1.396686 -1.222656 6.980621 0.836810 -2.460746 -6.112098 -1.704463 -17.155473 -7.379210 1.264032 22.572133 -1.417723 -0.818641 10.137851 0.000000 0.000000 0.000000 -1.202238 7.709619 -17.733496 18.339415 -28.589487 4.710602 1.648846 8.081872 -40.733654 0.000000 0.000000 0.000000 -7.125000 0.000000 0.000000 -44.486729 65.368918 23.982882 0.000000 0.000000 0.000000 -16.151299 -5.872272 1.513419 -13.167457 -21.532005 -2.514466 -19.732880 -18.642795 -28.493637 0.000000 0.000000 0.000000 7.125000 0.000000 0.000000 6.338599 0.170077 6.359109
1.352061 17.547179 -24.330502 1.760817 0.639153 3.803038 0.000000 0.000000 0.000000 -26.474615 -6.248699 -14.906082 1.384670 7.445455 21.041859 0.406999 -5.785827 -11.450895 0.087049 1.902606 5.236691 0.000000 0.000000 0.000000 16.714611 -4.688351 -7.100622 -9.118654 -16.883410 56.499382 0.317085 -10.221624 -6.364519 -2.120099 -9.108048 26.136473 -6.166474 1.008122 1.923391 3.367593 1.242795 -0.975209 6.939971 0.744013 -2.302151 -6.340808 -1.740507 -17.328898 -6.972106 1.162159 22.228853 -1.245030 -0.825509 10.039880 0.000000 0.000000 0.000000 -1.037603 6.985302 -17.737699 18.355589 -28.610105 4.718324 1.686370 8.129414 -41.917161 0.000000 0.000000 0.000000 -7.125000 0.000000 0.000000 -46.353738 66.203131 26.034216 0.000000 0.000000 0.000000 -15.918814 -5.874402 0.644708 -12.743032 -20.909517 -2.360828 -19.536650 -17.848313 -28.389999 0.000000 0.000000 0.000000 7.125000 0.000000 0.000000 6.442478 0.311825 6.448201
1.357489 17.542433 -24.215213 2.025718 0.887292 3.613644 0.000000 0.000000 0.000000 -26.852864 -6.465049 -14.163309 1.412511 7.516833 21.255949 0.441686 -5.588888 -11.883050 0.107275 2.109975 5.809781 0.000000 0.000000 0.000000 16.467141 -4.334961 -8.079662 -9.353388 -17.029596 57.304003 0.188053 -8.847802 -7.946748 -1.612003 -8.005131 22.730357 -6.498433 0.901752 2.167751 3.352576 1.077250 -0.931707 7.120788 0.667318 -2.374154 -6.370382 -1.705513 -17.350484 -6.976295 1.226864 22.276972 -1.233953 -0.801410 10.062326 0.000000 0.000000 0.000000 -0.937007 6.791462 -17.800432 18.618811 -28.942130 4.845052 1.109503 7.684668 -41.298599 0.000000 0.000000 0.000000 -7.125000 0.000000 0.000000 -45.907680 65.602811 25.144594 0.000000 0.000000 0.000000 -15.746148 -5.064760 0.862492 -12.800827 -20.994569 -2.381535 -19.026337 -17.934408 -27.959567 0.000000 0.000000 0.000000 7.125000 0.000000 0.000000 6.696263 0.841987 6.642833
1.360565 17.528767 -24.109417 2.276783 1.307981 3.588263 0.000000 0.000000 0.000000 -27.212157 -6.765274 -13.755638 1.453033 7.619147 21.563288 0.484179 -5.610884 -12.424382 0.093591 1.969726 5.422099 0.000000 0.000000 0.000000 16.253595 -4.012700 -9.262117 -9.562487 -17.156134 58.015522 0.076117 -7.715887 -9.139648 -1.426203 -7.544402 21.341901 -6.819375 0.777377 2.236564 3.296762 0.896118 -0.839380 7.255135 0.574383 -2.290696 -6.370131 -1.678316 -17.352950 -6.998161 1.261462 22.165758 -1.234915 -0.782944 10.023454 0.000000 0.000000 0.000000 -0.731899 6.425217 -18.160602 18.916004 -29.313575 4.989944 1.613272 7.910921 -40.154796 0.000000 0.000000 0.000000 -7.125000 0.000000 0.000000 -43.651033 64.945709 23.041776 0.000000 0.000000 0.000000 -15.407894 -4.757620 0.174462 -12.571261 -20.655647 -2.299867 -19.246918 -17.335116 -27.744121 0.000000 0.000000 0.000000 7.125000 0.000000 0.000000 6.542609 1.022657 6.468025
1.366670 17.512421 -23.989384 2.658344 1.457962 3.437949 0.000000 0.000000 0.000000 -27.742354 -6.604816 -13.252588 1.485953 7.701111 21.810070 0.510705 -5.891849 -12.772764 0.125328 2.277531 6.273460 0.000000 0.000000 0.000000 15.826103 -3.488770 -10.170840 -9.732531 -17.256470 58.590386 -0.063562 -6.468357 -10.676312 -1.162107 -6.837361 19.236807 -7.173070 0.714646 2.331384 3.162918 0.792644 -0.812036 7.320894 0.525894 -2.301293 -6.436999 -1.761993 -17.065223 -6.956987 1.108959 22.007497 -1.223888 -0.841380 9.910494 0.000000 0.000000 0.000000 -0.449224 6.424052 -18.528428 19.294180 -29.782299 5.176300 1.951817 7.866571 -41.217958 0.000000 0.000000 0.000000 -7.125000 0.000000 0.000000 -44.961793 65.797735 24.713585 0.000000 0.000000 0.000000 -15.058304 -4.241139 -0.331564 -12.286759 -20.232599 -2.200927 -19.659174 -16.752895 -27.102579 0.000000 0.000000 0.000000 7.125000 0.000000 0.000000 6.229429 1.604868 6.089251
1.372279 17.490384 -23.883738 2.799727 1.844861 3.247275 0.000000 0.000000 0.000000 -27.994662 -6.809670 -12.671785 1.523798 7.794231 22.090997 0.533854 -5.966711 -13.056189 0.171641 2.661694 7.338607 0.000000 0.000000 0.000000 15.693318 -3.123708 -11.055585 -9.860967 -17.330831 59.022492 -0.196628 -5.551106 -12.196661 -0.986915 -6.320362 17.717797 -7.240645 0.572175 2.607385 3.107462 0.581484 -0.710418 7.310120 0.417356 -2.313041 -6.508182 -1.750747 -17.097029 -6.858102 1.116816 21.933675 -1.175435 -0.829606 9.888806 0.000000 0.000000 0.000000 -0.268376 6.083199 -18.553713 19.539685 -30.083589 5.298750 1.909528 7.839248 -41.649282 0.000000 0.000000 0.000000 -7.125000 0.000000 0.000000 -45.700859 66.085292 25.483309 0.000000 0.000000 0.000000 -14.838014 -3.934232 -0.669236 -11.965315 -19.752465 -2.090630 -19.486503 -16.387800 -26.794408 0.000000 0.000000 0.000000 7.125000 0.000000 0.000000 6.300469 1.950163 6.119823
